<?xml version="1.0" encoding="UTF-8"?>
<!DOCTYPE svg PUBLIC "-//W3C//DTD SVG 1.1//EN" "http://www.w3.org/Graphics/SVG/1.1/DTD/svg11.dtd">
<svg version="1.1" xmlns="http://www.w3.org/2000/svg" xmlns:xlink="http://www.w3.org/1999/xlink" x="0px" y="0px" width="128" height="128" viewBox="0, 0, 128, 128">
  <g id="Layer 2">
    <path d="M0,0 L128,0 L128,128 L0,128 z" fill="#F5F5F5"/>
  </g>
  <g id="Layer 3">
    <path d="M66.883,15.842 C69.533,15.742 73.233,14.682 74.843,17.492 C76.643,19.852 77.203,24.882 73.753,26.002 C70.003,26.072 65.173,23.872 64.863,19.642 C64.833,18.212 65.423,16.372 66.883,15.842 z" fill="#008693"/>
    <path d="M52.823,19.932 C56.413,18.162 60.793,21.692 60.553,25.512 C60.863,28.402 60.203,32.302 56.753,32.872 C50.153,33.622 47.243,22.972 52.823,19.932 z" fill="#008693"/>
    <path d="M88.993,27.062 C91.193,26.162 94.063,26.962 95.033,29.252 C96.333,32.412 95.163,36.922 91.703,38.162 C87.103,37.102 84.043,29.612 88.993,27.062 z" fill="#008693"/>
    <path d="M38.933,36.772 C44.753,33.412 48.303,43.192 44.583,46.732 C41.503,48.442 37.373,46.402 36.093,43.292 C35.163,40.772 36.633,37.962 38.933,36.772 z" fill="#008693"/>
    <path d="M61.513,55.462 C63.343,53.492 65.603,50.832 68.633,51.712 C72.263,52.582 75.973,52.782 79.693,52.882 C82.813,54.672 85.723,56.892 89.183,58.092 C93.153,59.632 93.443,64.782 92.193,68.242 C90.413,71.272 86.293,70.022 83.533,69.432 C79.503,68.592 75.013,65.392 71.063,68.052 C67.883,70.802 65.063,73.972 61.513,76.272 C64.713,77.682 68.433,78.752 70.423,81.862 C72.873,84.912 74.353,88.822 77.623,91.142 C81.103,91.092 81.503,86.922 82.853,84.522 C80.513,82.162 77.593,80.402 75.463,77.832 C73.583,75.712 74.253,72.062 76.653,70.642 C81.633,71.222 86.883,73.152 90.013,77.262 C92.103,81.082 89.753,85.772 91.593,89.702 C93.643,94.552 97.743,98.982 96.883,104.622 C96.643,108.242 92.713,109.552 89.683,109.922 C85.353,110.522 81.873,107.502 78.133,105.922 C74.313,104.232 69.993,104.942 66.003,104.052 C63.773,103.262 62.253,101.302 60.693,99.632 C56.413,94.542 51.463,88.812 52.303,81.652 C53.323,79.532 55.153,77.972 56.853,76.412 C52.203,75.522 51.743,69.642 53.093,66.002 C54.443,61.482 58.633,58.912 61.513,55.462 z" fill="#008693"/>
    <path d="M26.993,76.122 C32.493,73.402 37.513,79.602 37.853,84.652 C37.453,88.852 32.123,90.232 28.753,88.772 C23.883,86.842 22.303,79.132 26.993,76.122 z" fill="#008693"/>
  </g>
  <defs/>
</svg>
